<svg id="_20846546501582634781_2_" data-name="20846546501582634781 (2)" xmlns="http://www.w3.org/2000/svg" width="34" height="27.606" viewBox="0 0 34 27.606">
  <g id="Group_2" data-name="Group 2" transform="translate(-8.29 -7.583)">
    <path id="Path_3" data-name="Path 3" d="M77.7,120.939l-11.979,9.875a.283.283,0,0,1-.011.062.285.285,0,0,0-.011.062v10a1.353,1.353,0,0,0,1.333,1.334h8v-8h5.334v8h8a1.354,1.354,0,0,0,1.334-1.334v-10a.293.293,0,0,0-.021-.125Z" transform="translate(-52.588 -107.084)"/>
    <path id="Path_4" data-name="Path 4" d="M33.765,60.175l-4.618-3.838v-8.6a.65.65,0,0,0-.675-.675H24.423a.649.649,0,0,0-.675.675v4.112l-5.146-4.3a2.616,2.616,0,0,0-3.205,0L.234,60.175A.613.613,0,0,0,0,60.628a.683.683,0,0,0,.148.5l1.307,1.561a.719.719,0,0,0,.443.232.784.784,0,0,0,.506-.148L17,50.6,31.593,62.769a.65.65,0,0,0,.443.147H32.1a.72.72,0,0,0,.443-.232l1.308-1.56a.683.683,0,0,0,.147-.5A.615.615,0,0,0,33.765,60.175Z" transform="translate(8.291 -39.411)"/>
  </g>
</svg>
