<svg xmlns="http://www.w3.org/2000/svg" width="34" height="34" viewBox="0 0 34 34">
  <g id="Icons" transform="translate(5 1)">
    <g id="Rounded" transform="translate(-5 -1)">
      <g id="Communication">
        <g id="_-Round-_-Communication-_-location_on" data-name="-Round-/-Communication-/-location_on">
          <g id="Group_3" data-name="Group 3">
            <path id="Path" d="M0,0H34V34H0Z" fill="none" fill-rule="evenodd"/>
            <path id="_Icon-Color" data-name="🔹Icon-Color" d="M17,2C10.366,2,5,6.738,5,12.6c0,6.312,7.577,15.015,10.7,18.33a1.851,1.851,0,0,0,2.623,0C21.423,27.61,29,18.907,29,12.6,29,6.738,23.634,2,17,2Zm0,14.379A4.06,4.06,0,0,1,12.714,12.6,4.06,4.06,0,0,1,17,8.811,4.06,4.06,0,0,1,21.286,12.6,4.06,4.06,0,0,1,17,16.379Z" fill="#1d1d1d" fill-rule="evenodd"/>
          </g>
        </g>
      </g>
    </g>
  </g>
</svg>
